<?xml version="1.0" encoding="UTF-8" standalone="no"?>
<!DOCTYPE svg PUBLIC "-//W3C//DTD SVG 1.1//EN"
 "http://www.w3.org/Graphics/SVG/1.1/DTD/svg11.dtd">
<!-- Generated by graphviz version 13.1.2 (20250808.2320)
 -->
<!-- Pages: 1 -->
<svg width="356pt" height="732pt"
 viewBox="0.00 0.00 356.00 732.00" xmlns="http://www.w3.org/2000/svg" xmlns:xlink="http://www.w3.org/1999/xlink">
<g id="graph0" class="graph" transform="scale(1 1) rotate(0) translate(4 728)">
<polygon fill="white" stroke="none" points="-4,4 -4,-728 352.18,-728 352.18,4 -4,4"/>
<!-- A -->
<g id="node1" class="node">
<title>A</title>
<path fill="#e1f5fe" stroke="black" d="M115.05,-724C115.05,-724 43.55,-724 43.55,-724 37.55,-724 31.55,-718 31.55,-712 31.55,-712 31.55,-700 31.55,-700 31.55,-694 37.55,-688 43.55,-688 43.55,-688 115.05,-688 115.05,-688 121.05,-688 127.05,-694 127.05,-700 127.05,-700 127.05,-712 127.05,-712 127.05,-718 121.05,-724 115.05,-724"/>
<text xml:space="preserve" text-anchor="middle" x="79.3" y="-702.5" font-family="Arial" font-size="10.00">Entrada da função</text>
</g>
<!-- B -->
<g id="node2" class="node">
<title>B</title>
<path fill="#fff3e0" stroke="black" d="M67.6,-648.34C67.6,-648.34 11.7,-635.66 11.7,-635.66 5.85,-634.33 5.85,-631.67 11.7,-630.34 11.7,-630.34 67.6,-617.66 67.6,-617.66 73.45,-616.33 85.15,-616.33 91,-617.66 91,-617.66 146.9,-630.34 146.9,-630.34 152.75,-631.67 152.75,-634.33 146.9,-635.66 146.9,-635.66 91,-648.34 91,-648.34 85.15,-649.67 73.45,-649.67 67.6,-648.34"/>
<text xml:space="preserve" text-anchor="middle" x="79.3" y="-629.5" font-family="Arial" font-size="10.00">x &lt; 10 ou y &lt; 10?</text>
</g>
<!-- A&#45;&gt;B -->
<g id="edge1" class="edge">
<title>A&#45;&gt;B</title>
<path fill="none" stroke="black" d="M79.3,-687.81C79.3,-680.23 79.3,-671.1 79.3,-662.54"/>
<polygon fill="black" stroke="black" points="82.8,-662.54 79.3,-652.54 75.8,-662.54 82.8,-662.54"/>
</g>
<!-- C -->
<g id="node3" class="node">
<title>C</title>
<path fill="#c8e6c9" stroke="black" d="M82.68,-562.5C82.68,-562.5 29.93,-562.5 29.93,-562.5 23.93,-562.5 17.93,-556.5 17.93,-550.5 17.93,-550.5 17.93,-538.5 17.93,-538.5 17.93,-532.5 23.93,-526.5 29.93,-526.5 29.93,-526.5 82.68,-526.5 82.68,-526.5 88.68,-526.5 94.68,-532.5 94.68,-538.5 94.68,-538.5 94.68,-550.5 94.68,-550.5 94.68,-556.5 88.68,-562.5 82.68,-562.5"/>
<text xml:space="preserve" text-anchor="middle" x="56.3" y="-541" font-family="Arial" font-size="10.00">Retorno: x * y</text>
</g>
<!-- B&#45;&gt;C -->
<g id="edge2" class="edge">
<title>B&#45;&gt;C</title>
<path fill="none" stroke="black" d="M74.98,-615.73C71.84,-603.95 67.53,-587.73 63.84,-573.85"/>
<polygon fill="black" stroke="black" points="67.27,-573.11 61.31,-564.35 60.5,-574.91 67.27,-573.11"/>
<text xml:space="preserve" text-anchor="middle" x="81.11" y="-583.7" font-family="Times New Roman,serif" font-size="14.00">Sim</text>
</g>
<!-- D -->
<g id="node4" class="node">
<title>D</title>
<path fill="#f5f5f5" stroke="black" d="M223.93,-562.5C223.93,-562.5 124.68,-562.5 124.68,-562.5 118.68,-562.5 112.68,-556.5 112.68,-550.5 112.68,-550.5 112.68,-538.5 112.68,-538.5 112.68,-532.5 118.68,-526.5 124.68,-526.5 124.68,-526.5 223.93,-526.5 223.93,-526.5 229.93,-526.5 235.93,-532.5 235.93,-538.5 235.93,-538.5 235.93,-550.5 235.93,-550.5 235.93,-556.5 229.93,-562.5 223.93,-562.5"/>
<text xml:space="preserve" text-anchor="middle" x="174.3" y="-541" font-family="Arial" font-size="10.00">Calcular n = max dígitos</text>
</g>
<!-- B&#45;&gt;D -->
<g id="edge3" class="edge">
<title>B&#45;&gt;D</title>
<path fill="none" stroke="black" d="M94.57,-618.1C108.59,-605.33 129.71,-586.1 146.7,-570.64"/>
<polygon fill="black" stroke="black" points="148.98,-573.29 154.02,-563.97 144.27,-568.11 148.98,-573.29"/>
<text xml:space="preserve" text-anchor="middle" x="146.56" y="-583.7" font-family="Times New Roman,serif" font-size="14.00">Não</text>
</g>
<!-- E -->
<g id="node5" class="node">
<title>E</title>
<path fill="#fff3e0" stroke="black" d="M162.94,-485.65C162.94,-485.65 132.52,-475.35 132.52,-475.35 126.83,-473.42 126.83,-469.58 132.52,-467.65 132.52,-467.65 162.94,-457.35 162.94,-457.35 168.62,-455.42 179.98,-455.42 185.67,-457.35 185.67,-457.35 216.09,-467.65 216.09,-467.65 221.77,-469.58 221.77,-473.42 216.09,-475.35 216.09,-475.35 185.67,-485.65 185.67,-485.65 179.98,-487.58 168.62,-487.58 162.94,-485.65"/>
<text xml:space="preserve" text-anchor="middle" x="174.3" y="-468" font-family="Arial" font-size="10.00">n é ímpar?</text>
</g>
<!-- D&#45;&gt;E -->
<g id="edge4" class="edge">
<title>D&#45;&gt;E</title>
<path fill="none" stroke="black" d="M174.3,-526.31C174.3,-518.84 174.3,-509.87 174.3,-501.42"/>
<polygon fill="black" stroke="black" points="177.8,-501.54 174.3,-491.54 170.8,-501.54 177.8,-501.54"/>
</g>
<!-- F -->
<g id="node6" class="node">
<title>F</title>
<path fill="#f5f5f5" stroke="black" d="M158.18,-401C158.18,-401 126.43,-401 126.43,-401 120.43,-401 114.43,-395 114.43,-389 114.43,-389 114.43,-377 114.43,-377 114.43,-371 120.43,-365 126.43,-365 126.43,-365 158.18,-365 158.18,-365 164.18,-365 170.18,-371 170.18,-377 170.18,-377 170.18,-389 170.18,-389 170.18,-395 164.18,-401 158.18,-401"/>
<text xml:space="preserve" text-anchor="middle" x="142.3" y="-379.5" font-family="Arial" font-size="10.00">n = n + 1</text>
</g>
<!-- E&#45;&gt;F -->
<g id="edge5" class="edge">
<title>E&#45;&gt;F</title>
<path fill="none" stroke="black" d="M168.58,-455.04C164.18,-443.15 157.99,-426.41 152.72,-412.16"/>
<polygon fill="black" stroke="black" points="156.02,-411 149.27,-402.83 149.46,-413.42 156.02,-411"/>
<text xml:space="preserve" text-anchor="middle" x="172.42" y="-422.2" font-family="Times New Roman,serif" font-size="14.00">Sim</text>
</g>
<!-- G -->
<g id="node7" class="node">
<title>G</title>
<path fill="#f5f5f5" stroke="black" d="M227.3,-328C227.3,-328 121.3,-328 121.3,-328 115.3,-328 109.3,-322 109.3,-316 109.3,-316 109.3,-304 109.3,-304 109.3,-298 115.3,-292 121.3,-292 121.3,-292 227.3,-292 227.3,-292 233.3,-292 239.3,-298 239.3,-304 239.3,-304 239.3,-316 239.3,-316 239.3,-322 233.3,-328 227.3,-328"/>
<text xml:space="preserve" text-anchor="middle" x="174.3" y="-306.5" font-family="Arial" font-size="10.00">Calcular divisor = 10^(n/2)</text>
</g>
<!-- E&#45;&gt;G -->
<g id="edge6" class="edge">
<title>E&#45;&gt;G</title>
<path fill="none" stroke="black" d="M181.21,-455.5C183.65,-449.43 186.09,-442.26 187.3,-435.5 193.18,-402.82 187.41,-364.79 181.8,-339.45"/>
<polygon fill="black" stroke="black" points="185.25,-338.83 179.54,-329.91 178.44,-340.44 185.25,-338.83"/>
<text xml:space="preserve" text-anchor="middle" x="200.94" y="-377.95" font-family="Times New Roman,serif" font-size="14.00">Não</text>
</g>
<!-- F&#45;&gt;G -->
<g id="edge7" class="edge">
<title>F&#45;&gt;G</title>
<path fill="none" stroke="black" d="M150.05,-364.81C153.62,-356.88 157.96,-347.26 161.97,-338.36"/>
<polygon fill="black" stroke="black" points="165.09,-339.96 166,-329.41 158.7,-337.09 165.09,-339.96"/>
</g>
<!-- H -->
<g id="node8" class="node">
<title>H</title>
<path fill="#f5f5f5" stroke="black" d="M227.68,-255C227.68,-255 120.93,-255 120.93,-255 114.93,-255 108.93,-249 108.93,-243 108.93,-243 108.93,-231 108.93,-231 108.93,-225 114.93,-219 120.93,-219 120.93,-219 227.68,-219 227.68,-219 233.68,-219 239.68,-225 239.68,-231 239.68,-231 239.68,-243 239.68,-243 239.68,-249 233.68,-255 227.68,-255"/>
<text xml:space="preserve" text-anchor="middle" x="174.3" y="-233.5" font-family="Arial" font-size="10.00">Dividir números em partes</text>
</g>
<!-- G&#45;&gt;H -->
<g id="edge8" class="edge">
<title>G&#45;&gt;H</title>
<path fill="none" stroke="black" d="M174.3,-291.81C174.3,-284.23 174.3,-275.1 174.3,-266.54"/>
<polygon fill="black" stroke="black" points="177.8,-266.54 174.3,-256.54 170.8,-266.54 177.8,-266.54"/>
</g>
<!-- I -->
<g id="node9" class="node">
<title>I</title>
<path fill="#f3e5f5" stroke="black" d="M92.18,-182C92.18,-182 12.43,-182 12.43,-182 6.43,-182 0.43,-176 0.43,-170 0.43,-170 0.43,-158 0.43,-158 0.43,-152 6.43,-146 12.43,-146 12.43,-146 92.18,-146 92.18,-146 98.18,-146 104.18,-152 104.18,-158 104.18,-158 104.18,-170 104.18,-170 104.18,-176 98.18,-182 92.18,-182"/>
<text xml:space="preserve" text-anchor="middle" x="52.3" y="-166.5" font-family="Arial" font-size="10.00">Chamada recursiva:</text>
<text xml:space="preserve" text-anchor="middle" x="52.3" y="-154.5" font-family="Arial" font-size="10.00">karatsuba(a, c)</text>
</g>
<!-- H&#45;&gt;I -->
<g id="edge9" class="edge">
<title>H&#45;&gt;I</title>
<path fill="none" stroke="black" d="M144.46,-218.63C128.65,-209.43 109.04,-198.02 91.97,-188.08"/>
<polygon fill="black" stroke="black" points="93.97,-185.2 83.57,-183.2 90.45,-191.25 93.97,-185.2"/>
</g>
<!-- J -->
<g id="node10" class="node">
<title>J</title>
<path fill="#f3e5f5" stroke="black" d="M214.18,-182C214.18,-182 134.43,-182 134.43,-182 128.43,-182 122.43,-176 122.43,-170 122.43,-170 122.43,-158 122.43,-158 122.43,-152 128.43,-146 134.43,-146 134.43,-146 214.18,-146 214.18,-146 220.18,-146 226.18,-152 226.18,-158 226.18,-158 226.18,-170 226.18,-170 226.18,-176 220.18,-182 214.18,-182"/>
<text xml:space="preserve" text-anchor="middle" x="174.3" y="-166.5" font-family="Arial" font-size="10.00">Chamada recursiva:</text>
<text xml:space="preserve" text-anchor="middle" x="174.3" y="-154.5" font-family="Arial" font-size="10.00">karatsuba(b, d)</text>
</g>
<!-- H&#45;&gt;J -->
<g id="edge10" class="edge">
<title>H&#45;&gt;J</title>
<path fill="none" stroke="black" d="M174.3,-218.81C174.3,-211.23 174.3,-202.1 174.3,-193.54"/>
<polygon fill="black" stroke="black" points="177.8,-193.54 174.3,-183.54 170.8,-193.54 177.8,-193.54"/>
</g>
<!-- K -->
<g id="node11" class="node">
<title>K</title>
<path fill="#f3e5f5" stroke="black" d="M336.18,-182C336.18,-182 256.43,-182 256.43,-182 250.43,-182 244.43,-176 244.43,-170 244.43,-170 244.43,-158 244.43,-158 244.43,-152 250.43,-146 256.43,-146 256.43,-146 336.18,-146 336.18,-146 342.18,-146 348.18,-152 348.18,-158 348.18,-158 348.18,-170 348.18,-170 348.18,-176 342.18,-182 336.18,-182"/>
<text xml:space="preserve" text-anchor="middle" x="296.3" y="-166.5" font-family="Arial" font-size="10.00">Chamada recursiva:</text>
<text xml:space="preserve" text-anchor="middle" x="296.3" y="-154.5" font-family="Arial" font-size="10.00">karatsuba(a+b, c+d)</text>
</g>
<!-- H&#45;&gt;K -->
<g id="edge11" class="edge">
<title>H&#45;&gt;K</title>
<path fill="none" stroke="black" d="M204.15,-218.63C219.95,-209.43 239.57,-198.02 256.64,-188.08"/>
<polygon fill="black" stroke="black" points="258.15,-191.25 265.03,-183.2 254.63,-185.2 258.15,-191.25"/>
</g>
<!-- L -->
<g id="node12" class="node">
<title>L</title>
<path fill="#f5f5f5" stroke="black" d="M220.18,-109C220.18,-109 128.43,-109 128.43,-109 122.43,-109 116.43,-103 116.43,-97 116.43,-97 116.43,-85 116.43,-85 116.43,-79 122.43,-73 128.43,-73 128.43,-73 220.18,-73 220.18,-73 226.18,-73 232.18,-79 232.18,-85 232.18,-85 232.18,-97 232.18,-97 232.18,-103 226.18,-109 220.18,-109"/>
<text xml:space="preserve" text-anchor="middle" x="174.3" y="-87.5" font-family="Arial" font-size="10.00">Calcular resultado final</text>
</g>
<!-- I&#45;&gt;L -->
<g id="edge12" class="edge">
<title>I&#45;&gt;L</title>
<path fill="none" stroke="black" d="M82.15,-145.63C97.95,-136.43 117.57,-125.02 134.64,-115.08"/>
<polygon fill="black" stroke="black" points="136.15,-118.25 143.03,-110.2 132.63,-112.2 136.15,-118.25"/>
</g>
<!-- J&#45;&gt;L -->
<g id="edge13" class="edge">
<title>J&#45;&gt;L</title>
<path fill="none" stroke="black" d="M174.3,-145.81C174.3,-138.23 174.3,-129.1 174.3,-120.54"/>
<polygon fill="black" stroke="black" points="177.8,-120.54 174.3,-110.54 170.8,-120.54 177.8,-120.54"/>
</g>
<!-- K&#45;&gt;L -->
<g id="edge14" class="edge">
<title>K&#45;&gt;L</title>
<path fill="none" stroke="black" d="M266.46,-145.63C250.65,-136.43 231.04,-125.02 213.97,-115.08"/>
<polygon fill="black" stroke="black" points="215.97,-112.2 205.57,-110.2 212.45,-118.25 215.97,-112.2"/>
</g>
<!-- M -->
<g id="node13" class="node">
<title>M</title>
<path fill="#c8e6c9" stroke="black" d="M215.68,-36C215.68,-36 132.93,-36 132.93,-36 126.93,-36 120.93,-30 120.93,-24 120.93,-24 120.93,-12 120.93,-12 120.93,-6 126.93,0 132.93,0 132.93,0 215.68,0 215.68,0 221.68,0 227.68,-6 227.68,-12 227.68,-12 227.68,-24 227.68,-24 227.68,-30 221.68,-36 215.68,-36"/>
<text xml:space="preserve" text-anchor="middle" x="174.3" y="-14.5" font-family="Arial" font-size="10.00">Retorno do resultado</text>
</g>
<!-- L&#45;&gt;M -->
<g id="edge15" class="edge">
<title>L&#45;&gt;M</title>
<path fill="none" stroke="black" d="M174.3,-72.81C174.3,-65.23 174.3,-56.1 174.3,-47.54"/>
<polygon fill="black" stroke="black" points="177.8,-47.54 174.3,-37.54 170.8,-47.54 177.8,-47.54"/>
</g>
</g>
</svg>
